<svg version="1.2" baseProfile="tiny-ps" xmlns="http://www.w3.org/2000/svg" viewBox="0 0 351 365" width="351" height="365">
	<title>New Project (1)-svg</title>
	<style>
		tspan { white-space:pre }
		.s0 { fill: #ffffff } 
	</style>
	<g id="Layer">
		<path id="Layer" class="s0" d="m39.77 111.99c-12.6 0-22.77-10.18-22.77-22.77c0-12.6 10.18-22.77 22.77-22.77c12.6 0 22.77 10.18 22.77 22.77c0 12.6-10.18 22.77-22.77 22.77z" />
		<path id="Layer" class="s0" d="m153.67 45.55c-12.6 0-22.77-10.18-22.77-22.77c0-12.6 10.18-22.77 22.77-22.77c12.6 0 22.77 10.18 22.77 22.77c0 12.6-10.18 22.77-22.77 22.77z" />
		<path id="Layer" class="s0" d="m250.48 165.15c-12.6 0-22.77-10.18-22.77-22.77c0-12.6 10.18-22.77 22.77-22.77c12.6 0 22.77 10.18 22.77 22.77c0 12.6-10.18 22.77-22.77 22.77z" />
		<path id="Layer" class="s0" d="m176.45 239.17c-12.6 0-22.77-10.18-22.77-22.77c0-12.6 10.18-22.77 22.77-22.77c12.6 0 22.77 10.18 22.77 22.77c0 12.6-10.18 22.77-22.77 22.77z" />
		<path id="Layer" class="s0" d="m311.23 290.42c-12.6 0-22.77-10.18-22.77-22.77c0-12.6 10.18-22.77 22.77-22.77c12.6 0 22.77 10.18 22.77 22.77c0 12.6-10.18 22.77-22.77 22.77z" />
		<path id="Layer" class="s0" d="m70.15 364.45c-12.6 0-22.77-10.18-22.77-22.77c0-12.6 10.18-22.77 22.77-22.77c12.6 0 22.77 10.18 22.77 22.77c0 12.6-10.18 22.77-22.77 22.77z" />
	</g>
</svg>